<?xml version="1.0" standalone="no"?>
<!DOCTYPE svg PUBLIC "-//W3C//DTD SVG 20010904//EN"
 "http://www.w3.org/TR/2001/REC-SVG-20010904/DTD/svg10.dtd">
<svg version="1.0" xmlns="http://www.w3.org/2000/svg"
 width="256.000000pt" height="256.000000pt" viewBox="0 0 256.000000 256.000000"
 preserveAspectRatio="xMidYMid meet">
<metadata>
Created by potrace 1.16, written by Peter Selinger 2001-2019
</metadata>
<g transform="translate(0.000000,256.000000) scale(0.100000,-0.100000)"
fill="#000000" stroke="none">
<path d="M1049 2544 c-181 -32 -386 -122 -536 -234 -110 -82 -321 -308 -302
-324 2 -1 103 -60 223 -129 l220 -127 30 38 c88 108 218 198 354 245 71 24
108 31 204 35 188 8 316 -28 472 -132 127 -84 122 -86 294 87 130 130 142 145
142 178 0 47 -20 72 -117 141 -154 111 -342 190 -529 223 -107 19 -350 18
-455 -1z"/>
<path d="M87 1756 c-70 -179 -82 -245 -82 -476 0 -191 2 -212 27 -305 27 -100
79 -240 96 -257 8 -8 396 206 430 237 11 9 8 26 -15 91 -25 73 -27 90 -27 234
0 144 2 161 27 234 23 65 26 82 15 91 -16 15 -417 245 -427 245 -4 0 -23 -42
-44 -94z"/>
<path d="M1383 1500 c-50 -20 -54 -42 -51 -260 3 -198 3 -202 27 -221 22 -18
43 -19 332 -19 l308 0 -12 -28 c-42 -99 -157 -245 -240 -304 -16 -12 -7 -31
107 -228 68 -118 131 -216 138 -218 18 -4 190 142 245 206 166 196 263 397
308 636 12 63 16 129 13 241 -3 145 -4 156 -26 177 l-23 23 -552 2 c-307 1
-562 -2 -574 -7z"/>
<path d="M434 703 c-121 -69 -221 -128 -223 -129 -9 -8 117 -160 190 -229 189
-176 439 -299 688 -335 131 -20 375 -8 492 23 94 24 246 81 262 96 7 7 -209
398 -238 429 -9 11 -26 8 -91 -15 -73 -25 -90 -27 -234 -27 -144 0 -161 2
-235 27 -137 48 -259 130 -351 238 l-42 48 -218 -126z"/>
</g>
</svg>
